<svg xmlns="http://www.w3.org/2000/svg" viewBox="0 0 512 512" fill="none">
  <defs>
    <linearGradient id="bg" x1="0" y1="0" x2="1" y2="1">
      <stop offset="0%" stop-color="#6366f1"/>
      <stop offset="100%" stop-color="#7c3aed"/>
    </linearGradient>
    <linearGradient id="roof" x1="0" y1="0" x2="0" y2="1">
      <stop offset="0%" stop-color="#ffffff"/>
      <stop offset="100%" stop-color="#e2e8f0"/>
    </linearGradient>
  </defs>
  <rect width="512" height="512" rx="80" fill="url(#bg)"/>
  <g transform="translate(256,260)">
    <rect x="-80" y="-40" width="160" height="140" rx="4" fill="rgba(255,255,255,0.9)"/>
    <polygon points="-90,-40 0,-80 90,-40" fill="url(#roof)"/>
    <rect x="-20" y="40" width="40" height="60" rx="3" fill="rgba(99,102,241,0.3)"/>
    <rect x="-60" y="-20" width="30" height="30" rx="2" fill="rgba(99,102,241,0.2)"/>
    <rect x="30" y="-20" width="30" height="30" rx="2" fill="rgba(99,102,241,0.2)"/>
    <rect x="-60" y="30" width="30" height="30" rx="2" fill="rgba(99,102,241,0.2)"/>
    <rect x="30" y="30" width="30" height="30" rx="2" fill="rgba(99,102,241,0.2)"/>
    <line x1="-45" y1="-20" x2="-45" y2="10" stroke="rgba(99,102,241,0.15)" stroke-width="1"/>
    <line x1="-60" y1="-5" x2="-30" y2="-5" stroke="rgba(99,102,241,0.15)" stroke-width="1"/>
    <line x1="45" y1="-20" x2="45" y2="10" stroke="rgba(99,102,241,0.15)" stroke-width="1"/>
    <line x1="30" y1="-5" x2="60" y2="-5" stroke="rgba(99,102,241,0.15)" stroke-width="1"/>
    <line x1="-45" y1="30" x2="-45" y2="60" stroke="rgba(99,102,241,0.15)" stroke-width="1"/>
    <line x1="-60" y1="45" x2="-30" y2="45" stroke="rgba(99,102,241,0.15)" stroke-width="1"/>
    <line x1="45" y1="30" x2="45" y2="60" stroke="rgba(99,102,241,0.15)" stroke-width="1"/>
    <line x1="30" y1="45" x2="60" y2="45" stroke="rgba(99,102,241,0.15)" stroke-width="1"/>
  </g>
  <text x="256" y="430" text-anchor="middle" font-family="system-ui, sans-serif" font-size="48" font-weight="800" fill="white" letter-spacing="2">SEKAR INN</text>
</svg>
